# 
# Wavefront OBJ file
# Converted by the 3D Exploration 1.833
# XDimension Software, LLC
# http://www.xdsoft.com/explorer/
# 
mtllib plane.mtl
# object Plane01
g Plane01
v -67.8031 -54.0048 24.9501
v -67.8031 -80.7519 24.9501
v -49.4131 -54.0048 24.9501
v -49.4131 -80.7519 24.9501
v -31.023 -54.0048 24.9501
v -31.023 -80.7519 24.9501
v -12.633 -54.0048 24.9501
v -12.633 -80.7519 24.9501
v 5.75699 -54.0048 24.9501
v 5.75699 -80.7519 24.9501
v -67.8031 -27.2578 24.9501
v -49.4131 -27.2578 24.9501
v -31.023 -27.2578 24.9501
v -12.633 -27.2578 24.9501
v 5.75699 -27.2578 24.9501
v -67.8031 -0.510712 24.9501
v -49.4131 -0.510712 24.9501
v -31.023 -0.510712 24.9501
v -12.633 -0.510712 24.9501
v 5.75699 -0.510712 24.9501
v -67.8031 26.2363 24.9501
v -49.4131 26.2363 24.9501
v -31.023 26.2363 24.9501
v -12.633 26.2363 24.9501
v 5.75699 26.2363 24.9501
# 25 verticies
vt 0 0.25
vt 0 0
vt 0.25 0.25
vt 0.25 0
vt 0.5 0.25
vt 0.5 0
vt 0.75 0.25
vt 0.75 0
vt 1 0.25
vt 1 0
vt 0 0.5
vt 0.25 0.5
vt 0.5 0.5
vt 0.75 0.5
vt 1 0.5
vt 0 0.75
vt 0.25 0.75
vt 0.5 0.75
vt 0.75 0.75
vt 1 0.75
vt 0 1
vt 0.25 1
vt 0.5 1
vt 0.75 1
vt 1 1
# 25 texture verticies
vn 0 0 1
# 1 normals
usemtl Explorer_Default
f 1/1/1 2/2/1 3/3/1
f 4/4/1 3/3/1 2/2/1
f 3/3/1 4/4/1 5/5/1
f 6/6/1 5/5/1 4/4/1
f 5/5/1 6/6/1 7/7/1
f 8/8/1 7/7/1 6/6/1
f 7/7/1 8/8/1 9/9/1
f 10/10/1 9/9/1 8/8/1
f 11/11/1 1/1/1 12/12/1
f 3/3/1 12/12/1 1/1/1
f 12/12/1 3/3/1 13/13/1
f 5/5/1 13/13/1 3/3/1
f 13/13/1 5/5/1 14/14/1
f 7/7/1 14/14/1 5/5/1
f 14/14/1 7/7/1 15/15/1
f 9/9/1 15/15/1 7/7/1
f 16/16/1 11/11/1 17/17/1
f 12/12/1 17/17/1 11/11/1
f 17/17/1 12/12/1 18/18/1
f 13/13/1 18/18/1 12/12/1
f 18/18/1 13/13/1 19/19/1
f 14/14/1 19/19/1 13/13/1
f 19/19/1 14/14/1 20/20/1
f 15/15/1 20/20/1 14/14/1
f 21/21/1 16/16/1 22/22/1
f 17/17/1 22/22/1 16/16/1
f 22/22/1 17/17/1 23/23/1
f 18/18/1 23/23/1 17/17/1
f 23/23/1 18/18/1 24/24/1
f 19/19/1 24/24/1 18/18/1
f 24/24/1 19/19/1 25/25/1
f 20/20/1 25/25/1 19/19/1
