# 
# Wavefront OBJ file
# Converted by the DEEP Exploration 3.5.10.1242
# Right Hemisphere, LTD
# http://www.righthemisphere.com/
# 
mtllib quad_staple.mtl
# object Plane01
g Plane01
v -65 6.63657e-009 87.4219
v -32.5 6.63657e-009 87.4219
v -3.8147e-006 6.63657e-009 87.4219
v 32.5 6.63657e-009 87.4219
v 65 6.63657e-009 87.4219
v -65 -1.41398e-006 54.9219
v -32.5 -1.41398e-006 54.9219
v -3.8147e-006 -1.41398e-006 54.9219
v 32.5 -1.41398e-006 54.9219
v 65 -1.41398e-006 54.9219
v -65 -2.8346e-006 22.4219
v -32.5 -2.8346e-006 22.4219
v -3.8147e-006 -2.8346e-006 22.4219
v 32.5 -2.8346e-006 22.4219
v 65 -2.8346e-006 22.4219
v -65 -4.25522e-006 -10.0781
v -32.5 -4.25522e-006 -10.0781
v -3.8147e-006 -4.25522e-006 -10.0781
v 32.5 -4.25522e-006 -10.0781
v 65 -4.25522e-006 -10.0781
v -65 -5.67584e-006 -42.5781
v -32.5 -5.67584e-006 -42.5781
v -3.8147e-006 -5.67584e-006 -42.5781
v 32.5 -5.67584e-006 -42.5781
v 65 -5.67584e-006 -42.5781
# 25 verticies
vt 0 0.25
vt 0 0
vt 0.25 0.25
vt 0.25 0
vt 0.5 0.25
vt 0.5 0
vt 0.75 0.25
vt 0.75 0
vt 1 0.25
vt 1 0
vt 0 0.5
vt 0.25 0.5
vt 0.5 0.5
vt 0.75 0.5
vt 1 0.5
vt 0 0.75
vt 0.25 0.75
vt 0.5 0.75
vt 0.75 0.75
vt 1 0.75
vt 0 1
vt 0.25 1
vt 0.5 1
vt 0.75 1
vt 1 1
# 25 texture verticies
vn 0 1 -4.37114e-008
vn 0 1 -4.37114e-008
# 2 normals
usemtl Default
f  6/1/1 1/2/1 7/3/2
f  2/4/1 7/3/2 1/2/1
f  7/3/2 2/4/1 8/5/2
f  3/6/1 8/5/2 2/4/1
f  8/5/2 3/6/1 9/7/2
f  4/8/1 9/7/2 3/6/1
f  9/7/2 4/8/1 10/9/1
f  5/10/1 10/9/1 4/8/1
f  11/11/1 6/1/1 12/12/1
f  7/3/2 12/12/1 6/1/1
f  12/12/1 7/3/2 13/13/1
f  8/5/2 13/13/1 7/3/2
f  13/13/1 8/5/2 14/14/1
f  9/7/2 14/14/1 8/5/2
f  14/14/1 9/7/2 15/15/1
f  10/9/1 15/15/1 9/7/2
f  16/16/2 11/11/1 17/17/2
f  12/12/1 17/17/2 11/11/1
f  17/17/2 12/12/1 18/18/2
f  13/13/1 18/18/2 12/12/1
f  18/18/2 13/13/1 19/19/2
f  14/14/1 19/19/2 13/13/1
f  19/19/2 14/14/1 20/20/1
f  15/15/1 20/20/1 14/14/1
f  21/21/2 16/16/2 22/22/2
f  17/17/2 22/22/2 16/16/2
f  22/22/2 17/17/2 23/23/2
f  18/18/2 23/23/2 17/17/2
f  23/23/2 18/18/2 24/24/2
f  19/19/2 24/24/2 18/18/2
f  24/24/2 19/19/2 25/25/2
f  20/20/1 25/25/2 19/19/2
# object Plane02
g Plane02
v 29.9294 24.1221 70.9052
v 34.9294 24.1221 70.9052
v 39.9294 24.1221 70.9052
v 44.9294 24.1221 70.9052
v 49.9294 24.1221 70.9052
v 29.9294 18.0113 46.6636
v 34.9294 18.0113 46.6636
v 39.9294 18.0113 46.6636
v 44.9294 18.0113 46.6636
v 49.9294 18.0113 46.6636
v 29.9294 11.9004 22.4219
v 34.9294 11.9004 22.4219
v 39.9294 11.9004 22.4219
v 44.9294 11.9004 22.4219
v 49.9294 11.9004 22.4219
v 29.9294 5.78956 -1.81972
v 34.9294 5.78956 -1.81972
v 39.9294 5.78956 -1.81972
v 44.9294 5.78956 -1.81972
v 49.9294 5.78956 -1.81972
v 29.9294 -0.321298 -26.0614
v 34.9294 -0.321298 -26.0614
v 39.9294 -0.321298 -26.0614
v 44.9294 -0.321298 -26.0614
v 49.9294 -0.321298 -26.0614
# 25 verticies
vt 0 0.25
vt 0 0
vt 0.25 0.25
vt 0.25 0
vt 0.5 0.25
vt 0.5 0
vt 0.75 0.25
vt 0.75 0
vt 1 0.25
vt 1 0
vt 0 0.5
vt 0.25 0.5
vt 0.5 0.5
vt 0.75 0.5
vt 1 0.5
vt 0 0.75
vt 0.25 0.75
vt 0.5 0.75
vt 0.75 0.75
vt 1 0.75
vt 0 1
vt 0.25 1
vt 0.5 1
vt 0.75 1
vt 1 1
# 25 texture verticies
vn 0 0.969666 -0.244434
vn 0 0.969666 -0.244434
vn 0 0.969666 -0.244434
vn 0 0.969666 -0.244434
vn 0 0.969666 -0.244434
# 5 normals
usemtl Explorer_Default
f  31/26/3 26/27/4 32/28/3
f  27/29/3 32/28/3 26/27/4
f  32/28/3 27/29/3 33/30/3
f  28/31/3 33/30/3 27/29/3
f  33/30/3 28/31/3 34/32/3
f  29/33/3 34/32/3 28/31/3
f  34/32/3 29/33/3 35/34/3
f  30/35/4 35/34/3 29/33/3
f  36/36/5 31/26/3 37/37/3
f  32/28/3 37/37/3 31/26/3
f  37/37/3 32/28/3 38/38/3
f  33/30/3 38/38/3 32/28/3
f  38/38/3 33/30/3 39/39/3
f  34/32/3 39/39/3 33/30/3
f  39/39/3 34/32/3 40/40/5
f  35/34/3 40/40/5 34/32/3
f  41/41/5 36/36/5 42/42/5
f  37/37/3 42/42/5 36/36/5
f  42/42/5 37/37/3 43/43/5
f  38/38/3 43/43/5 37/37/3
f  43/43/5 38/38/3 44/44/5
f  39/39/3 44/44/5 38/38/3
f  44/44/5 39/39/3 45/45/5
f  40/40/5 45/45/5 39/39/3
f  46/46/6 41/41/5 47/47/7
f  42/42/5 47/47/7 41/41/5
f  47/47/7 42/42/5 48/48/7
f  43/43/5 48/48/7 42/42/5
f  48/48/7 43/43/5 49/49/7
f  44/44/5 49/49/7 43/43/5
f  49/49/7 44/44/5 50/50/6
f  45/45/5 50/50/6 44/44/5
# object Plane03
g Plane03
v -45 5 67.4219
v -37.5 5 67.4219
v -30 5 67.4219
v -22.5 5 67.4219
v -15 5 67.4219
v -45 5 59.9219
v -37.5 5 59.9219
v -30 5 59.9219
v -22.5 5 59.9219
v -15 5 59.9219
v -45 5 52.4219
v -37.5 5 52.4219
v -30 5 52.4219
v -22.5 5 52.4219
v -15 5 52.4219
v -45 5 44.9219
v -37.5 5 44.9219
v -30 5 44.9219
v -22.5 5 44.9219
v -15 5 44.9219
v -45 5 37.4219
v -37.5 5 37.4219
v -30 5 37.4219
v -22.5 5 37.4219
v -15 5 37.4219
# 25 verticies
vt 0 0.25
vt 0 0
vt 0.25 0.25
vt 0.25 0
vt 0.5 0.25
vt 0.5 0
vt 0.75 0.25
vt 0.75 0
vt 1 0.25
vt 1 0
vt 0 0.5
vt 0.25 0.5
vt 0.5 0.5
vt 0.75 0.5
vt 1 0.5
vt 0 0.75
vt 0.25 0.75
vt 0.5 0.75
vt 0.75 0.75
vt 1 0.75
vt 0 1
vt 0.25 1
vt 0.5 1
vt 0.75 1
vt 1 1
# 25 texture verticies
vn 0 1 -2.11928e-008
vn 0 1 -6.35783e-008
vn 0 1 -3.17892e-008
vn 0 1 -4.23855e-008
vn 0 1 -4.23855e-008
vn 0 1 -3.17891e-008
vn 0 1 -2.11928e-008
vn 0 1 -6.35783e-008
# 8 normals
f  56/51/8 51/52/9 57/53/10
f  52/54/9 57/53/10 51/52/9
f  57/53/10 52/54/9 58/55/10
f  53/56/9 58/55/10 52/54/9
f  58/55/10 53/56/9 59/57/10
f  54/58/9 59/57/10 53/56/9
f  59/57/10 54/58/9 60/59/11
f  55/60/9 60/59/11 54/58/9
f  61/61/12 56/51/8 62/62/13
f  57/53/10 62/62/13 56/51/8
f  62/62/13 57/53/10 63/63/13
f  58/55/10 63/63/13 57/53/10
f  63/63/13 58/55/10 64/64/13
f  59/57/10 64/64/13 58/55/10
f  64/64/13 59/57/10 65/65/14
f  60/59/11 65/65/14 59/57/10
f  66/66/15 61/61/12 67/67/15
f  62/62/13 67/67/15 61/61/12
f  67/67/15 62/62/13 68/68/15
f  63/63/13 68/68/15 62/62/13
f  68/68/15 63/63/13 69/69/15
f  64/64/13 69/69/15 63/63/13
f  69/69/15 64/64/13 70/70/15
f  65/65/14 70/70/15 64/64/13
f  71/71/15 66/66/15 72/72/15
f  67/67/15 72/72/15 66/66/15
f  72/72/15 67/67/15 73/73/15
f  68/68/15 73/73/15 67/67/15
f  73/73/15 68/68/15 74/74/15
f  69/69/15 74/74/15 68/68/15
f  74/74/15 69/69/15 75/75/15
f  70/70/15 75/75/15 69/69/15
# object Plane04
g Plane04
v -35 10 47.4219
v -27.5 10 47.4219
v -20 10 47.4219
v -12.5 10 47.4219
v -5 10 47.4219
v -35 10 39.9219
v -27.5 10 39.9219
v -20 10 39.9219
v -12.5 10 39.9219
v -5 10 39.9219
v -35 10 32.4219
v -27.5 10 32.4219
v -20 10 32.4219
v -12.5 10 32.4219
v -5 10 32.4219
v -35 10 24.9219
v -27.5 10 24.9219
v -20 10 24.9219
v -12.5 10 24.9219
v -5 10 24.9219
v -35 10 17.4219
v -27.5 10 17.4219
v -20 10 17.4219
v -12.5 10 17.4219
v -5 10 17.4219
# 25 verticies
vt 0 0.25
vt 0 0
vt 0.25 0.25
vt 0.25 0
vt 0.5 0.25
vt 0.5 0
vt 0.75 0.25
vt 0.75 0
vt 1 0.25
vt 1 0
vt 0 0.5
vt 0.25 0.5
vt 0.5 0.5
vt 0.75 0.5
vt 1 0.5
vt 0 0.75
vt 0.25 0.75
vt 0.5 0.75
vt 0.75 0.75
vt 1 0.75
vt 0 1
vt 0.25 1
vt 0.5 1
vt 0.75 1
vt 1 1
# 25 texture verticies
vn 0 1 -8.47711e-008
vn 0 1 0
vn 0 1 -6.35783e-008
vn 0 1 -4.23855e-008
# 4 normals
f  81/76/16 76/77/17 82/78/18
f  77/79/17 82/78/18 76/77/17
f  82/78/18 77/79/17 83/80/18
f  78/81/17 83/80/18 77/79/17
f  83/80/18 78/81/17 84/82/18
f  79/83/17 84/82/18 78/81/17
f  84/82/18 79/83/17 85/84/19
f  80/85/17 85/84/19 79/83/17
f  86/86/19 81/76/16 87/87/18
f  82/78/18 87/87/18 81/76/16
f  87/87/18 82/78/18 88/88/18
f  83/80/18 88/88/18 82/78/18
f  88/88/18 83/80/18 89/89/18
f  84/82/18 89/89/18 83/80/18
f  89/89/18 84/82/18 90/90/16
f  85/84/19 90/90/16 84/82/18
f  91/91/17 86/86/19 92/92/17
f  87/87/18 92/92/17 86/86/19
f  92/92/17 87/87/18 93/93/17
f  88/88/18 93/93/17 87/87/18
f  93/93/17 88/88/18 94/94/17
f  89/89/18 94/94/17 88/88/18
f  94/94/17 89/89/18 95/95/17
f  90/90/16 95/95/17 89/89/18
f  96/96/17 91/91/17 97/97/17
f  92/92/17 97/97/17 91/91/17
f  97/97/17 92/92/17 98/98/17
f  93/93/17 98/98/17 92/92/17
f  98/98/17 93/93/17 99/99/17
f  94/94/17 99/99/17 93/93/17
f  99/99/17 94/94/17 100/100/17
f  95/95/17 100/100/17 94/94/17
# object Plane05
g Plane05
v -25 15 27.4219
v -17.5 15 27.4219
v -10 15 27.4219
v -2.5 15 27.4219
v 5 15 27.4219
v -25 15 19.9219
v -17.5 15 19.9219
v -10 15 19.9219
v -2.5 15 19.9219
v 5 15 19.9219
v -25 15 12.4219
v -17.5 15 12.4219
v -10 15 12.4219
v -2.5 15 12.4219
v 5 15 12.4219
v -25 15 4.92192
v -17.5 15 4.92192
v -10 15 4.92192
v -2.5 15 4.92192
v 5 15 4.92192
v -25 15 -2.57808
v -17.5 15 -2.57808
v -10 15 -2.57808
v -2.5 15 -2.57808
v 5 15 -2.57808
# 25 verticies
vt 0 0.25
vt 0 0
vt 0.25 0.25
vt 0.25 0
vt 0.5 0.25
vt 0.5 0
vt 0.75 0.25
vt 0.75 0
vt 1 0.25
vt 1 0
vt 0 0.5
vt 0.25 0.5
vt 0.5 0.5
vt 0.75 0.5
vt 1 0.5
vt 0 0.75
vt 0.25 0.75
vt 0.5 0.75
vt 0.75 0.75
vt 1 0.75
vt 0 1
vt 0.25 1
vt 0.5 1
vt 0.75 1
vt 1 1
# 25 texture verticies
vn 0 1 0
vn 0 1 -8.47711e-008
vn 0 1 -6.35783e-008
vn 0 1 -4.23855e-008
# 4 normals
f  106/101/20 101/102/20 107/103/20
f  102/104/20 107/103/20 101/102/20
f  107/103/20 102/104/20 108/105/20
f  103/106/20 108/105/20 102/104/20
f  108/105/20 103/106/20 109/107/20
f  104/108/20 109/107/20 103/106/20
f  109/107/20 104/108/20 110/109/20
f  105/110/20 110/109/20 104/108/20
f  111/111/21 106/101/20 112/112/22
f  107/103/20 112/112/22 106/101/20
f  112/112/22 107/103/20 113/113/22
f  108/105/20 113/113/22 107/103/20
f  113/113/22 108/105/20 114/114/22
f  109/107/20 114/114/22 108/105/20
f  114/114/22 109/107/20 115/115/23
f  110/109/20 115/115/23 109/107/20
f  116/116/23 111/111/21 117/117/22
f  112/112/22 117/117/22 111/111/21
f  117/117/22 112/112/22 118/118/22
f  113/113/22 118/118/22 112/112/22
f  118/118/22 113/113/22 119/119/22
f  114/114/22 119/119/22 113/113/22
f  119/119/22 114/114/22 120/120/21
f  115/115/23 120/120/21 114/114/22
f  121/121/20 116/116/23 122/122/20
f  117/117/22 122/122/20 116/116/23
f  122/122/20 117/117/22 123/123/20
f  118/118/22 123/123/20 117/117/22
f  123/123/20 118/118/22 124/124/20
f  119/119/22 124/124/20 118/118/22
f  124/124/20 119/119/22 125/125/20
f  120/120/21 125/125/20 119/119/22
# object Plane06
g Plane06
v -15 20 7.42192
v -7.5 20 7.42192
v -3.8147e-006 20 7.42192
v 7.5 20 7.42192
v 15 20 7.42192
v -15 20 -0.0780763
v -7.5 20 -0.0780763
v -3.8147e-006 20 -0.0780763
v 7.5 20 -0.0780763
v 15 20 -0.0780763
v -15 20 -7.57808
v -7.5 20 -7.57808
v -3.8147e-006 20 -7.57808
v 7.5 20 -7.57808
v 15 20 -7.57808
v -15 20 -15.0781
v -7.5 20 -15.0781
v -3.8147e-006 20 -15.0781
v 7.5 20 -15.0781
v 15 20 -15.0781
v -15 20 -22.5781
v -7.5 20 -22.5781
v -3.8147e-006 20 -22.5781
v 7.5 20 -22.5781
v 15 20 -22.5781
# 25 verticies
vt 0 0.25
vt 0 0
vt 0.25 0.25
vt 0.25 0
vt 0.5 0.25
vt 0.5 0
vt 0.75 0.25
vt 0.75 0
vt 1 0.25
vt 1 0
vt 0 0.5
vt 0.25 0.5
vt 0.5 0.5
vt 0.75 0.5
vt 1 0.5
vt 0 0.75
vt 0.25 0.75
vt 0.5 0.75
vt 0.75 0.75
vt 1 0.75
vt 0 1
vt 0.25 1
vt 0.5 1
vt 0.75 1
vt 1 1
# 25 texture verticies
vn 0 1 0
vn 0 1 -1.69542e-007
vn 0 1 -1.27157e-007
vn 0 1 -8.47711e-008
vn 0 1 -2.54313e-007
# 5 normals
f  131/126/24 126/127/24 132/128/24
f  127/129/24 132/128/24 126/127/24
f  132/128/24 127/129/24 133/130/24
f  128/131/24 133/130/24 127/129/24
f  133/130/24 128/131/24 134/132/24
f  129/133/24 134/132/24 128/131/24
f  134/132/24 129/133/24 135/134/24
f  130/135/24 135/134/24 129/133/24
f  136/136/24 131/126/24 137/137/24
f  132/128/24 137/137/24 131/126/24
f  137/137/24 132/128/24 138/138/24
f  133/130/24 138/138/24 132/128/24
f  138/138/24 133/130/24 139/139/24
f  134/132/24 139/139/24 133/130/24
f  139/139/24 134/132/24 140/140/24
f  135/134/24 140/140/24 134/132/24
f  141/141/25 136/136/24 142/142/26
f  137/137/24 142/142/26 136/136/24
f  142/142/26 137/137/24 143/143/26
f  138/138/24 143/143/26 137/137/24
f  143/143/26 138/138/24 144/144/26
f  139/139/24 144/144/26 138/138/24
f  144/144/26 139/139/24 145/145/27
f  140/140/24 145/145/27 139/139/24
f  146/146/28 141/141/25 147/147/28
f  142/142/26 147/147/28 141/141/25
f  147/147/28 142/142/26 148/148/28
f  143/143/26 148/148/28 142/142/26
f  148/148/28 143/143/26 149/149/28
f  144/144/26 149/149/28 143/143/26
f  149/149/28 144/144/26 150/150/28
f  145/145/27 150/150/28 144/144/26
# object Plane07
g Plane07
v -65 -45.9619 4.50196
v -32.5 -45.9619 4.50196
v -2.21312e-006 -45.9619 4.50197
v 32.5 -45.9619 4.50197
v 65 -45.9619 4.50197
v -65 -22.981 -18.479
v -32.5 -22.981 -18.479
v -1.61772e-006 -22.981 -18.479
v 32.5 -22.981 -18.479
v 65 -22.981 -18.479
v -65 -1.48927e-006 -41.46
v -32.5 -2.16194e-006 -41.46
v -1.02233e-006 -2.8346e-006 -41.46
v 32.5 -3.50727e-006 -41.46
v 65 -4.17994e-006 -41.46
v -65 22.981 -64.441
v -32.5 22.981 -64.4409
v -4.26936e-007 22.981 -64.441
v 32.5 22.981 -64.4409
v 65 22.981 -64.4409
v -65 45.9619 -87.4219
v -32.5 45.9619 -87.4219
v 1.68458e-007 45.9619 -87.4219
v 32.5 45.9619 -87.4219
v 65 45.9619 -87.4219
# 25 verticies
vt 0 0.25
vt 0 0
vt 0.25 0.25
vt 0.25 0
vt 0.5 0.25
vt 0.5 0
vt 0.75 0.25
vt 0.75 0
vt 1 0.25
vt 1 0
vt 0 0.5
vt 0.25 0.5
vt 0.5 0.5
vt 0.75 0.5
vt 1 0.5
vt 0 0.75
vt 0.25 0.75
vt 0.5 0.75
vt 0.75 0.75
vt 1 0.75
vt 0 1
vt 0.25 1
vt 0.5 1
vt 0.75 1
vt 1 1
# 25 texture verticies
vn 4.87843e-009 0.707107 0.707107
vn -1.55619e-008 0.707107 0.707107
vn -2.74809e-009 0.707107 0.707107
vn -1.38328e-008 0.707107 0.707107
vn 1.45429e-008 0.707107 0.707107
vn 6.91641e-009 0.707107 0.707107
vn -6.91641e-009 0.707107 0.707107
vn -3.4582e-009 0.707107 0.707107
vn -1.03746e-008 0.707107 0.707107
vn -4.55744e-008 0.707107 0.707107
vn 4.43389e-008 0.707107 0.707107
vn -1.79088e-008 0.707107 0.707107
vn 1.66733e-008 0.707107 0.707107
vn 9.75686e-009 0.707107 0.707107
vn -1.65994e-007 0.707107 0.707107
vn 3.01048e-008 0.707107 0.707107
vn 4.39377e-008 0.707107 0.707107
vn -5.2892e-008 0.707107 0.707107
vn 4.87843e-009 0.707107 0.707107
vn -8.29969e-008 0.707107 0.707107
vn 1.52161e-007 0.707107 0.707107
vn 1.89478e-014 0.707107 0.707107
vn 0 0.707107 0.707107
# 23 normals
usemtl Default
f  156/151/29 151/152/30 157/153/31
f  152/154/32 157/153/31 151/152/30
f  157/153/31 152/154/32 158/155/33
f  153/156/34 158/155/33 152/154/32
f  158/155/33 153/156/34 159/157/33
f  154/158/35 159/157/33 153/156/34
f  159/157/33 154/158/35 160/159/36
f  155/160/37 160/159/36 154/158/35
f  161/161/38 156/151/29 162/162/39
f  157/153/31 162/162/39 156/151/29
f  162/162/39 157/153/31 163/163/40
f  158/155/33 163/163/40 157/153/31
f  163/163/40 158/155/33 164/164/41
f  159/157/33 164/164/41 158/155/33
f  164/164/41 159/157/33 165/165/42
f  160/159/36 165/165/42 159/157/33
f  166/166/43 161/161/38 167/167/44
f  162/162/39 167/167/44 161/161/38
f  167/167/44 162/162/39 168/168/45
f  163/163/40 168/168/45 162/162/39
f  168/168/45 163/163/40 169/169/46
f  164/164/41 169/169/46 163/163/40
f  169/169/46 164/164/41 170/170/47
f  165/165/42 170/170/47 164/164/41
f  171/171/43 166/166/43 172/172/48
f  167/167/44 172/172/48 166/166/43
f  172/172/48 167/167/44 173/173/49
f  168/168/45 173/173/49 167/167/44
f  173/173/49 168/168/45 174/174/50
f  169/169/46 174/174/50 168/168/45
f  174/174/50 169/169/46 175/175/51
f  170/170/47 175/175/51 169/169/46
